<mxfile host="app.diagrams.net" modified="2023-07-18T20:40:11.891Z" agent="Mozilla/5.0 (Windows NT 10.0; Win64; x64) AppleWebKit/537.36 (KHTML, like Gecko) Chrome/114.0.0.0 Safari/537.36" etag="ShqM9qr_WxuzcGwb-9yo" version="21.6.3" type="github">
  <diagram name="Page-1" id="ZL44sbv_In_xkoPFjhPI">
    <mxGraphModel dx="1346" dy="1823" grid="1" gridSize="10" guides="1" tooltips="1" connect="1" arrows="1" fold="1" page="1" pageScale="1" pageWidth="850" pageHeight="1100" math="0" shadow="0">
      <root>
        <mxCell id="0" />
        <mxCell id="1" parent="0" />
        <mxCell id="LHH-dQecdae47-QXxgxL-3" style="edgeStyle=orthogonalEdgeStyle;rounded=0;orthogonalLoop=1;jettySize=auto;html=1;entryX=0.5;entryY=0;entryDx=0;entryDy=0;" edge="1" parent="1" source="LHH-dQecdae47-QXxgxL-1" target="LHH-dQecdae47-QXxgxL-2">
          <mxGeometry relative="1" as="geometry" />
        </mxCell>
        <mxCell id="LHH-dQecdae47-QXxgxL-1" value="Start" style="rounded=0;whiteSpace=wrap;html=1;" vertex="1" parent="1">
          <mxGeometry x="200" y="-670" width="120" height="60" as="geometry" />
        </mxCell>
        <mxCell id="LHH-dQecdae47-QXxgxL-6" style="edgeStyle=orthogonalEdgeStyle;rounded=0;orthogonalLoop=1;jettySize=auto;html=1;exitX=0;exitY=0.5;exitDx=0;exitDy=0;entryX=1;entryY=0.5;entryDx=0;entryDy=0;" edge="1" parent="1" source="LHH-dQecdae47-QXxgxL-2" target="LHH-dQecdae47-QXxgxL-5">
          <mxGeometry relative="1" as="geometry" />
        </mxCell>
        <mxCell id="LHH-dQecdae47-QXxgxL-7" style="edgeStyle=orthogonalEdgeStyle;rounded=0;orthogonalLoop=1;jettySize=auto;html=1;exitX=1;exitY=0.5;exitDx=0;exitDy=0;entryX=0;entryY=0.5;entryDx=0;entryDy=0;" edge="1" parent="1" source="LHH-dQecdae47-QXxgxL-2" target="LHH-dQecdae47-QXxgxL-4">
          <mxGeometry relative="1" as="geometry" />
        </mxCell>
        <mxCell id="LHH-dQecdae47-QXxgxL-2" value="Height &amp;gt;= 120" style="rhombus;whiteSpace=wrap;html=1;" vertex="1" parent="1">
          <mxGeometry x="180" y="-560" width="160" height="120" as="geometry" />
        </mxCell>
        <mxCell id="LHH-dQecdae47-QXxgxL-32" style="edgeStyle=orthogonalEdgeStyle;rounded=0;orthogonalLoop=1;jettySize=auto;html=1;exitX=0.5;exitY=1;exitDx=0;exitDy=0;" edge="1" parent="1" source="LHH-dQecdae47-QXxgxL-4" target="LHH-dQecdae47-QXxgxL-19">
          <mxGeometry relative="1" as="geometry" />
        </mxCell>
        <mxCell id="LHH-dQecdae47-QXxgxL-33" style="edgeStyle=orthogonalEdgeStyle;rounded=0;orthogonalLoop=1;jettySize=auto;html=1;exitX=0.5;exitY=0;exitDx=0;exitDy=0;" edge="1" parent="1" source="LHH-dQecdae47-QXxgxL-4" target="LHH-dQecdae47-QXxgxL-24">
          <mxGeometry relative="1" as="geometry" />
        </mxCell>
        <mxCell id="LHH-dQecdae47-QXxgxL-34" style="edgeStyle=orthogonalEdgeStyle;rounded=0;orthogonalLoop=1;jettySize=auto;html=1;exitX=1;exitY=0.5;exitDx=0;exitDy=0;" edge="1" parent="1" source="LHH-dQecdae47-QXxgxL-4" target="LHH-dQecdae47-QXxgxL-21">
          <mxGeometry relative="1" as="geometry" />
        </mxCell>
        <mxCell id="LHH-dQecdae47-QXxgxL-4" value="Can ride" style="rounded=0;whiteSpace=wrap;html=1;direction=south;" vertex="1" parent="1">
          <mxGeometry x="380" y="-470" width="90" height="90" as="geometry" />
        </mxCell>
        <mxCell id="LHH-dQecdae47-QXxgxL-14" value="" style="edgeStyle=orthogonalEdgeStyle;rounded=0;orthogonalLoop=1;jettySize=auto;html=1;" edge="1" parent="1" source="LHH-dQecdae47-QXxgxL-5" target="LHH-dQecdae47-QXxgxL-13">
          <mxGeometry relative="1" as="geometry" />
        </mxCell>
        <mxCell id="LHH-dQecdae47-QXxgxL-5" value="Can&#39;t ride" style="rounded=0;whiteSpace=wrap;html=1;direction=north;" vertex="1" parent="1">
          <mxGeometry x="40" y="-470" width="100" height="90" as="geometry" />
        </mxCell>
        <mxCell id="LHH-dQecdae47-QXxgxL-8" value="No" style="text;html=1;align=center;verticalAlign=middle;resizable=0;points=[];autosize=1;strokeColor=none;fillColor=none;" vertex="1" parent="1">
          <mxGeometry x="90" y="-532" width="40" height="30" as="geometry" />
        </mxCell>
        <mxCell id="LHH-dQecdae47-QXxgxL-9" value="Yes" style="text;html=1;align=center;verticalAlign=middle;resizable=0;points=[];autosize=1;strokeColor=none;fillColor=none;" vertex="1" parent="1">
          <mxGeometry x="380" y="-532" width="40" height="30" as="geometry" />
        </mxCell>
        <mxCell id="LHH-dQecdae47-QXxgxL-13" value="END" style="whiteSpace=wrap;html=1;rounded=0;" vertex="1" parent="1">
          <mxGeometry x="30" y="-300" width="120" height="60" as="geometry" />
        </mxCell>
        <mxCell id="LHH-dQecdae47-QXxgxL-19" value="Pay 5$" style="rounded=0;whiteSpace=wrap;html=1;" vertex="1" parent="1">
          <mxGeometry x="210" y="-300" width="120" height="60" as="geometry" />
        </mxCell>
        <mxCell id="LHH-dQecdae47-QXxgxL-21" value="Pay 7$" style="rounded=0;whiteSpace=wrap;html=1;" vertex="1" parent="1">
          <mxGeometry x="365" y="-300" width="120" height="60" as="geometry" />
        </mxCell>
        <mxCell id="LHH-dQecdae47-QXxgxL-24" value="Pay 12$" style="rounded=0;whiteSpace=wrap;html=1;" vertex="1" parent="1">
          <mxGeometry x="510" y="-300" width="120" height="60" as="geometry" />
        </mxCell>
        <mxCell id="LHH-dQecdae47-QXxgxL-26" value="age &amp;lt;12" style="text;html=1;align=center;verticalAlign=middle;resizable=0;points=[];autosize=1;strokeColor=none;fillColor=none;" vertex="1" parent="1">
          <mxGeometry x="280" y="-460" width="70" height="30" as="geometry" />
        </mxCell>
        <mxCell id="LHH-dQecdae47-QXxgxL-27" value="&#xa;&lt;span style=&quot;color: rgb(0, 0, 0); font-family: Helvetica; font-size: 12px; font-style: normal; font-variant-ligatures: normal; font-variant-caps: normal; font-weight: 400; letter-spacing: normal; orphans: 2; text-align: center; text-indent: 0px; text-transform: none; widows: 2; word-spacing: 0px; -webkit-text-stroke-width: 0px; background-color: rgb(251, 251, 251); text-decoration-thickness: initial; text-decoration-style: initial; text-decoration-color: initial; float: none; display: inline !important;&quot;&gt;age 12 - 18&lt;/span&gt;&#xa;&#xa;" style="text;html=1;align=center;verticalAlign=middle;resizable=0;points=[];autosize=1;strokeColor=none;fillColor=none;" vertex="1" parent="1">
          <mxGeometry x="425" y="-360" width="80" height="60" as="geometry" />
        </mxCell>
        <mxCell id="LHH-dQecdae47-QXxgxL-28" value="age &amp;gt;18" style="text;html=1;align=center;verticalAlign=middle;resizable=0;points=[];autosize=1;strokeColor=none;fillColor=none;" vertex="1" parent="1">
          <mxGeometry x="500" y="-460" width="70" height="30" as="geometry" />
        </mxCell>
      </root>
    </mxGraphModel>
  </diagram>
</mxfile>
